<svg xmlns="http://www.w3.org/2000/svg" xmlns:xlink="http://www.w3.org/1999/xlink" width="100" zoomAndPan="magnify" viewBox="0 0 75 52.499999" height="70" preserveAspectRatio="xMidYMid meet" version="1.0"><defs><g/><clipPath id="2c3a8ac24e"><path d="M 0.660156 0.160156 L 9 0.160156 L 9 9 L 0.660156 9 Z M 0.660156 0.160156 " clip-rule="nonzero"/></clipPath><clipPath id="2124ee1db1"><path d="M 24 0.160156 L 32 0.160156 L 32 9 L 24 9 Z M 24 0.160156 " clip-rule="nonzero"/></clipPath><clipPath id="174244b9ef"><path d="M 31 0.160156 L 38 0.160156 L 38 9 L 31 9 Z M 31 0.160156 " clip-rule="nonzero"/></clipPath><clipPath id="777379fb01"><path d="M 37 0.160156 L 45 0.160156 L 45 9 L 37 9 Z M 37 0.160156 " clip-rule="nonzero"/></clipPath><clipPath id="7761f322f9"><path d="M 44 0.160156 L 51.535156 0.160156 L 51.535156 9 L 44 9 Z M 44 0.160156 " clip-rule="nonzero"/></clipPath><clipPath id="e09947f9b2"><rect x="0" width="52" y="0" height="10"/></clipPath><clipPath id="240d3e5e8a"><path d="M 7 18.789062 L 16 18.789062 L 16 32.902344 L 7 32.902344 Z M 7 18.789062 " clip-rule="nonzero"/></clipPath><clipPath id="e24976fc90"><path d="M 4.5 22 L 19 22 L 19 30 L 4.5 30 Z M 4.5 22 " clip-rule="nonzero"/></clipPath></defs><g transform="matrix(1, 0, 0, 1, 18, 21)"><g clip-path="url(#e09947f9b2)"><g clip-path="url(#2c3a8ac24e)"><g fill="#f1c124" fill-opacity="1"><g transform="translate(2.102072, 7.789625)"><g><path d="M 0.734375 -3.269531 C 0.761719 -4.28125 1.210938 -5.324219 2.449219 -5.898438 C 1.042969 -4.253906 0.984375 -2.339844 2.113281 -0.761719 C 1.210938 -1.210938 0.6875 -2.09375 0.734375 -3.269531 Z M 4.121094 0.0195312 C 5.390625 -0.0664062 5.925781 -0.574219 6.226562 -0.769531 C 6.519531 -0.996094 6.855469 -1.519531 6.855469 -2 C 6.855469 -2.292969 6.394531 -2.347656 6.28125 -1.925781 C 6.058594 -0.9375 5.222656 -0.308594 4.207031 -0.234375 C 1.605469 -0.0664062 1.363281 -3.8125 2.769531 -5.585938 C 3.222656 -6.171875 3.804688 -6.433594 4.535156 -6.433594 C 5.859375 -6.433594 5.351562 -5.15625 5.296875 -4.882812 C 5.222656 -4.59375 5.664062 -4.375 5.664062 -4.734375 C 5.671875 -5.070312 6.152344 -6.152344 6.394531 -6.59375 C 6.621094 -7.023438 6.28125 -7.25 6.199219 -6.910156 C 6.09375 -6.519531 4.800781 -6.742188 4.546875 -6.742188 C -1.238281 -6.742188 -1.238281 0.367188 4.121094 0.0195312 Z M 4.121094 0.0195312 "/></g></g></g></g><g fill="#f1c124" fill-opacity="1"><g transform="translate(9.098641, 7.789625)"><g><path d="M 3.417969 -0.957031 C 3.082031 -0.347656 2.375 0.0742188 2.085938 -0.882812 C 1.886719 -1.503906 1.898438 -2.402344 1.914062 -2.855469 C 1.914062 -3.191406 1.953125 -3.839844 1.972656 -4.058594 C 2.121094 -5.523438 3.128906 -5.277344 3.492188 -5.558594 C 3.605469 -5.644531 3.410156 -5.917969 3.15625 -5.757812 C 3.050781 -5.691406 2.039062 -5.503906 1.839844 -5.476562 C 1.445312 -5.445312 1.109375 -5.492188 0.742188 -5.523438 C 0.542969 -5.550781 0.460938 -5.730469 0.140625 -5.804688 C -0.101562 -5.859375 -0.226562 -5.578125 -0.0273438 -5.4375 C 0.179688 -5.296875 0.6875 -5.210938 0.796875 -5.15625 C 0.910156 -5.082031 0.910156 -3.972656 0.902344 -3.128906 C 0.882812 -2.292969 0.9375 -0.574219 0.761719 -0.375 C 0.574219 -0.179688 0.179688 -0.167969 0.09375 -0.121094 C 0 -0.0859375 0.292969 0.300781 0.488281 0.160156 C 0.984375 -0.0390625 2.628906 -0.0546875 3.238281 0 C 3.492188 0.0273438 3.785156 0 3.859375 0.132812 C 4.027344 0.441406 4.347656 0.300781 4.140625 -0.0546875 C 4.027344 -0.234375 4.066406 -1.699219 4.121094 -2.007812 C 4.179688 -2.320312 3.785156 -2.449219 3.785156 -2.085938 C 3.785156 -1.839844 3.644531 -1.332031 3.417969 -0.957031 Z M 3.417969 -0.957031 "/></g></g></g><g fill="#f1c124" fill-opacity="1"><g transform="translate(13.719194, 7.789625)"><g><path d="M 4.121094 -2.308594 C 3.832031 -0.394531 3.128906 -0.0390625 2.535156 -0.0546875 C 1.898438 -0.0546875 1.324219 -0.957031 1.351562 -2.199219 C 1.363281 -3.015625 1.53125 -3.773438 1.691406 -4.433594 C 1.726562 -4.574219 1.886719 -4.882812 2.140625 -5.082031 C 2.292969 -5.222656 2.59375 -5.25 2.621094 -5.335938 C 2.648438 -5.445312 2.714844 -5.558594 2.515625 -5.550781 C 2.226562 -5.53125 1.503906 -5.445312 1.304688 -5.464844 C 0.742188 -5.476562 0.675781 -5.492188 0.167969 -5.605469 C -0.046875 -5.644531 -0.0859375 -5.417969 -0.0546875 -5.417969 C 0.515625 -5.242188 0.714844 -4.734375 0.6875 -4.574219 C 0.535156 -3.8125 0.347656 -2.96875 0.339844 -2.152344 C 0.292969 -0.488281 1.296875 0.160156 2.5625 0.167969 C 4.910156 0.195312 4.648438 -2.375 4.5625 -4.292969 C 4.535156 -4.902344 4.855469 -5.304688 5.410156 -5.296875 C 5.664062 -5.296875 5.550781 -5.699219 5.304688 -5.617188 C 5.042969 -5.523438 4.546875 -5.464844 4.253906 -5.464844 C 3.632812 -5.476562 3.128906 -5.578125 2.988281 -5.578125 C 2.761719 -5.578125 2.761719 -5.363281 3.015625 -5.324219 C 3.605469 -5.242188 4.066406 -4.789062 4.09375 -4.207031 C 4.121094 -3.726562 4.199219 -2.761719 4.121094 -2.308594 Z M 4.121094 -2.308594 "/></g></g></g><g fill="#f1c124" fill-opacity="1"><g transform="translate(19.410362, 7.789625)"><g><path d="M 1.804688 -0.09375 C 3.4375 0.273438 4.179688 -0.0664062 4.460938 -0.621094 C 4.789062 -1.238281 4.628906 -1.953125 4.3125 -2.375 C 4.066406 -2.675781 3.757812 -2.742188 3.390625 -2.902344 C 3.644531 -2.988281 4.207031 -3.363281 4.367188 -4.039062 C 4.488281 -4.601562 4.320312 -5.691406 2.882812 -5.671875 C 1.773438 -5.664062 1.472656 -5.476562 0.996094 -5.503906 C 0.402344 -5.53125 0.507812 -5.898438 0.308594 -6.011719 C 0.0859375 -6.125 -0.113281 -5.886719 0.0546875 -5.691406 C 0.207031 -5.503906 0.6875 -5.210938 0.796875 -5.15625 C 0.910156 -5.082031 0.910156 -3.972656 0.902344 -3.128906 C 0.882812 -2.292969 0.882812 -0.65625 0.703125 -0.460938 C 0.535156 -0.261719 0.460938 -0.167969 0.375 -0.121094 C 0.28125 -0.0859375 0.292969 0.300781 0.488281 0.160156 C 0.648438 0.0546875 1.324219 -0.0859375 1.804688 -0.09375 Z M 2.375 -0.308594 L 2.167969 -0.308594 C 2.066406 -0.347656 1.972656 -0.421875 1.945312 -0.574219 C 1.925781 -0.714844 1.914062 -2.152344 1.925781 -2.796875 C 3.097656 -2.957031 3.25 -2.449219 3.210938 -1.136719 C 3.183594 -0.589844 3.183594 -0.292969 2.375 -0.308594 Z M 1.945312 -3.269531 C 1.945312 -3.605469 1.953125 -3.898438 1.972656 -4.058594 C 2.027344 -4.546875 2.066406 -5.164062 2.308594 -5.25 C 2.535156 -5.324219 3.464844 -5.109375 3.4375 -4.152344 C 3.417969 -3.804688 3.210938 -3.277344 2.742188 -3.210938 C 2.367188 -3.136719 2.121094 -3.25 1.945312 -3.269531 Z M 1.945312 -3.269531 "/></g></g></g><g clip-path="url(#2124ee1db1)"><g fill="#f1c124" fill-opacity="1"><g transform="translate(24.369004, 7.789625)"><g><path d="M 0.367188 -7.023438 C 0.09375 -7.164062 -0.140625 -6.875 0.0664062 -6.660156 C 0.253906 -6.421875 0.828125 -6.085938 0.957031 -6 C 1.097656 -5.925781 1.097656 -4.574219 1.078125 -3.578125 C 1.070312 -2.5625 1.070312 -0.855469 0.84375 -0.621094 C 0.648438 -0.394531 0.5625 -0.253906 0.449219 -0.195312 C 0.339844 -0.148438 0.347656 0.28125 0.589844 0.140625 C 0.84375 -0.0273438 2.167969 -0.28125 2.628906 -0.113281 C 3.097656 0.0546875 3.023438 -0.394531 2.855469 -0.394531 C 2.6875 -0.394531 2.394531 -0.433594 2.339844 -0.742188 C 2.308594 -0.929688 2.292969 -1.914062 2.308594 -2.84375 L 2.433594 -2.84375 C 3.222656 -2.84375 3.644531 -2.308594 3.871094 -1.832031 C 4.113281 -1.332031 4.546875 -0.167969 5.269531 0.113281 C 5.730469 0.308594 6.226562 0.167969 6.507812 0.0859375 C 6.675781 0.0273438 6.734375 -0.367188 6.453125 -0.253906 C 6.171875 -0.140625 5.980469 -0.421875 5.839844 -0.65625 C 5.757812 -0.789062 5.605469 -1.351562 5.25 -2.007812 C 4.957031 -2.601562 4.574219 -2.882812 4.40625 -2.96875 C 4.714844 -3.097656 5.585938 -3.53125 5.71875 -4.339844 C 5.832031 -5.15625 5.550781 -6.648438 3.804688 -6.621094 C 2.460938 -6.601562 1.773438 -6.394531 1.191406 -6.421875 C 0.488281 -6.480469 0.601562 -6.910156 0.367188 -7.023438 Z M 2.339844 -3.410156 C 2.339844 -3.898438 2.347656 -4.320312 2.367188 -4.546875 C 2.433594 -5.242188 2.480469 -6.027344 2.769531 -6.113281 C 3.042969 -6.199219 4.488281 -6.058594 4.460938 -4.707031 C 4.453125 -4.199219 3.980469 -3.351562 3.4375 -3.382812 C 3.015625 -3.410156 2.546875 -3.410156 2.339844 -3.410156 Z M 1.886719 -0.621094 C 1.699219 -0.621094 1.519531 -0.589844 1.332031 -0.5625 C 1.585938 -1.25 1.578125 -4.339844 1.53125 -5.15625 C 1.53125 -5.523438 1.503906 -5.777344 1.464844 -5.972656 C 1.53125 -5.972656 1.617188 -5.972656 1.699219 -5.980469 L 2.121094 -6.027344 C 1.773438 -4.996094 1.773438 -1.238281 1.867188 -0.675781 Z M 3.871094 -2.988281 C 3.917969 -2.957031 4.742188 -1.972656 4.800781 -1.886719 C 4.96875 -1.578125 5.128906 -1.191406 5.222656 -0.957031 L 5.324219 -0.65625 C 5.382812 -0.5625 5.417969 -0.433594 5.492188 -0.339844 C 4.535156 -0.648438 4.546875 -2.199219 3.632812 -2.929688 C 3.605469 -2.929688 3.773438 -3.015625 3.871094 -2.988281 Z M 4.320312 -6.066406 C 4.96875 -5.898438 5.410156 -5.4375 5.25 -4.40625 C 5.210938 -4.066406 4.875 -3.8125 4.546875 -3.578125 C 4.800781 -3.953125 4.910156 -4.40625 4.929688 -4.675781 C 4.929688 -5.242188 4.675781 -5.71875 4.320312 -6.066406 Z M 4.320312 -6.066406 "/></g></g></g></g><g clip-path="url(#174244b9ef)"><g fill="#f1c124" fill-opacity="1"><g transform="translate(31.14018, 7.789625)"><g><path d="M 0.367188 -7.023438 C 0.09375 -7.164062 -0.140625 -6.875 0.0664062 -6.660156 C 0.253906 -6.421875 0.828125 -6.085938 0.957031 -6 C 1.097656 -5.925781 1.097656 -4.574219 1.078125 -3.578125 C 1.070312 -2.5625 1.070312 -0.855469 0.84375 -0.621094 C 0.648438 -0.394531 0.5625 -0.253906 0.449219 -0.195312 C 0.339844 -0.148438 0.347656 0.28125 0.589844 0.140625 C 0.84375 -0.0273438 2.167969 -0.28125 2.628906 -0.113281 C 3.097656 0.0546875 3.023438 -0.394531 2.855469 -0.394531 C 2.6875 -0.394531 2.394531 -0.433594 2.339844 -0.742188 C 2.308594 -0.929688 2.292969 -1.914062 2.308594 -2.84375 L 2.433594 -2.84375 C 3.222656 -2.84375 3.644531 -2.308594 3.871094 -1.832031 C 4.113281 -1.332031 4.546875 -0.167969 5.269531 0.113281 C 5.730469 0.308594 6.226562 0.167969 6.507812 0.0859375 C 6.675781 0.0273438 6.734375 -0.367188 6.453125 -0.253906 C 6.171875 -0.140625 5.980469 -0.421875 5.839844 -0.65625 C 5.757812 -0.789062 5.605469 -1.351562 5.25 -2.007812 C 4.957031 -2.601562 4.574219 -2.882812 4.40625 -2.96875 C 4.714844 -3.097656 5.585938 -3.53125 5.71875 -4.339844 C 5.832031 -5.15625 5.550781 -6.648438 3.804688 -6.621094 C 2.460938 -6.601562 1.773438 -6.394531 1.191406 -6.421875 C 0.488281 -6.480469 0.601562 -6.910156 0.367188 -7.023438 Z M 2.339844 -3.410156 C 2.339844 -3.898438 2.347656 -4.320312 2.367188 -4.546875 C 2.433594 -5.242188 2.480469 -6.027344 2.769531 -6.113281 C 3.042969 -6.199219 4.488281 -6.058594 4.460938 -4.707031 C 4.453125 -4.199219 3.980469 -3.351562 3.4375 -3.382812 C 3.015625 -3.410156 2.546875 -3.410156 2.339844 -3.410156 Z M 1.886719 -0.621094 C 1.699219 -0.621094 1.519531 -0.589844 1.332031 -0.5625 C 1.585938 -1.25 1.578125 -4.339844 1.53125 -5.15625 C 1.53125 -5.523438 1.503906 -5.777344 1.464844 -5.972656 C 1.53125 -5.972656 1.617188 -5.972656 1.699219 -5.980469 L 2.121094 -6.027344 C 1.773438 -4.996094 1.773438 -1.238281 1.867188 -0.675781 Z M 3.871094 -2.988281 C 3.917969 -2.957031 4.742188 -1.972656 4.800781 -1.886719 C 4.96875 -1.578125 5.128906 -1.191406 5.222656 -0.957031 L 5.324219 -0.65625 C 5.382812 -0.5625 5.417969 -0.433594 5.492188 -0.339844 C 4.535156 -0.648438 4.546875 -2.199219 3.632812 -2.929688 C 3.605469 -2.929688 3.773438 -3.015625 3.871094 -2.988281 Z M 4.320312 -6.066406 C 4.96875 -5.898438 5.410156 -5.4375 5.25 -4.40625 C 5.210938 -4.066406 4.875 -3.8125 4.546875 -3.578125 C 4.800781 -3.953125 4.910156 -4.40625 4.929688 -4.675781 C 4.929688 -5.242188 4.675781 -5.71875 4.320312 -6.066406 Z M 4.320312 -6.066406 "/></g></g></g></g><g clip-path="url(#777379fb01)"><g fill="#f1c124" fill-opacity="1"><g transform="translate(37.911356, 7.789625)"><g><path d="M 0.367188 -7.023438 C 0.09375 -7.164062 -0.140625 -6.875 0.0664062 -6.660156 C 0.253906 -6.421875 0.828125 -6.085938 0.957031 -6 C 1.097656 -5.925781 1.097656 -4.574219 1.078125 -3.578125 C 1.070312 -2.5625 1.070312 -0.855469 0.84375 -0.621094 C 0.648438 -0.394531 0.5625 -0.253906 0.449219 -0.195312 C 0.339844 -0.148438 0.347656 0.28125 0.589844 0.140625 C 0.84375 -0.0273438 2.167969 -0.28125 2.628906 -0.113281 C 3.097656 0.0546875 3.023438 -0.394531 2.855469 -0.394531 C 2.6875 -0.394531 2.394531 -0.433594 2.339844 -0.742188 C 2.308594 -0.929688 2.292969 -1.914062 2.308594 -2.84375 L 2.433594 -2.84375 C 3.222656 -2.84375 3.644531 -2.308594 3.871094 -1.832031 C 4.113281 -1.332031 4.546875 -0.167969 5.269531 0.113281 C 5.730469 0.308594 6.226562 0.167969 6.507812 0.0859375 C 6.675781 0.0273438 6.734375 -0.367188 6.453125 -0.253906 C 6.171875 -0.140625 5.980469 -0.421875 5.839844 -0.65625 C 5.757812 -0.789062 5.605469 -1.351562 5.25 -2.007812 C 4.957031 -2.601562 4.574219 -2.882812 4.40625 -2.96875 C 4.714844 -3.097656 5.585938 -3.53125 5.71875 -4.339844 C 5.832031 -5.15625 5.550781 -6.648438 3.804688 -6.621094 C 2.460938 -6.601562 1.773438 -6.394531 1.191406 -6.421875 C 0.488281 -6.480469 0.601562 -6.910156 0.367188 -7.023438 Z M 2.339844 -3.410156 C 2.339844 -3.898438 2.347656 -4.320312 2.367188 -4.546875 C 2.433594 -5.242188 2.480469 -6.027344 2.769531 -6.113281 C 3.042969 -6.199219 4.488281 -6.058594 4.460938 -4.707031 C 4.453125 -4.199219 3.980469 -3.351562 3.4375 -3.382812 C 3.015625 -3.410156 2.546875 -3.410156 2.339844 -3.410156 Z M 1.886719 -0.621094 C 1.699219 -0.621094 1.519531 -0.589844 1.332031 -0.5625 C 1.585938 -1.25 1.578125 -4.339844 1.53125 -5.15625 C 1.53125 -5.523438 1.503906 -5.777344 1.464844 -5.972656 C 1.53125 -5.972656 1.617188 -5.972656 1.699219 -5.980469 L 2.121094 -6.027344 C 1.773438 -4.996094 1.773438 -1.238281 1.867188 -0.675781 Z M 3.871094 -2.988281 C 3.917969 -2.957031 4.742188 -1.972656 4.800781 -1.886719 C 4.96875 -1.578125 5.128906 -1.191406 5.222656 -0.957031 L 5.324219 -0.65625 C 5.382812 -0.5625 5.417969 -0.433594 5.492188 -0.339844 C 4.535156 -0.648438 4.546875 -2.199219 3.632812 -2.929688 C 3.605469 -2.929688 3.773438 -3.015625 3.871094 -2.988281 Z M 4.320312 -6.066406 C 4.96875 -5.898438 5.410156 -5.4375 5.25 -4.40625 C 5.210938 -4.066406 4.875 -3.8125 4.546875 -3.578125 C 4.800781 -3.953125 4.910156 -4.40625 4.929688 -4.675781 C 4.929688 -5.242188 4.675781 -5.71875 4.320312 -6.066406 Z M 4.320312 -6.066406 "/></g></g></g></g><g clip-path="url(#7761f322f9)"><g fill="#f1c124" fill-opacity="1"><g transform="translate(44.68253, 7.789625)"><g><path d="M 0.367188 -7.023438 C 0.09375 -7.164062 -0.140625 -6.875 0.0664062 -6.660156 C 0.253906 -6.421875 0.828125 -6.085938 0.957031 -6 C 1.097656 -5.925781 1.097656 -4.574219 1.078125 -3.578125 C 1.070312 -2.5625 1.070312 -0.855469 0.84375 -0.621094 C 0.648438 -0.394531 0.5625 -0.253906 0.449219 -0.195312 C 0.339844 -0.148438 0.347656 0.28125 0.589844 0.140625 C 0.84375 -0.0273438 2.167969 -0.28125 2.628906 -0.113281 C 3.097656 0.0546875 3.023438 -0.394531 2.855469 -0.394531 C 2.6875 -0.394531 2.394531 -0.433594 2.339844 -0.742188 C 2.308594 -0.929688 2.292969 -1.914062 2.308594 -2.84375 L 2.433594 -2.84375 C 3.222656 -2.84375 3.644531 -2.308594 3.871094 -1.832031 C 4.113281 -1.332031 4.546875 -0.167969 5.269531 0.113281 C 5.730469 0.308594 6.226562 0.167969 6.507812 0.0859375 C 6.675781 0.0273438 6.734375 -0.367188 6.453125 -0.253906 C 6.171875 -0.140625 5.980469 -0.421875 5.839844 -0.65625 C 5.757812 -0.789062 5.605469 -1.351562 5.25 -2.007812 C 4.957031 -2.601562 4.574219 -2.882812 4.40625 -2.96875 C 4.714844 -3.097656 5.585938 -3.53125 5.71875 -4.339844 C 5.832031 -5.15625 5.550781 -6.648438 3.804688 -6.621094 C 2.460938 -6.601562 1.773438 -6.394531 1.191406 -6.421875 C 0.488281 -6.480469 0.601562 -6.910156 0.367188 -7.023438 Z M 2.339844 -3.410156 C 2.339844 -3.898438 2.347656 -4.320312 2.367188 -4.546875 C 2.433594 -5.242188 2.480469 -6.027344 2.769531 -6.113281 C 3.042969 -6.199219 4.488281 -6.058594 4.460938 -4.707031 C 4.453125 -4.199219 3.980469 -3.351562 3.4375 -3.382812 C 3.015625 -3.410156 2.546875 -3.410156 2.339844 -3.410156 Z M 1.886719 -0.621094 C 1.699219 -0.621094 1.519531 -0.589844 1.332031 -0.5625 C 1.585938 -1.25 1.578125 -4.339844 1.53125 -5.15625 C 1.53125 -5.523438 1.503906 -5.777344 1.464844 -5.972656 C 1.53125 -5.972656 1.617188 -5.972656 1.699219 -5.980469 L 2.121094 -6.027344 C 1.773438 -4.996094 1.773438 -1.238281 1.867188 -0.675781 Z M 3.871094 -2.988281 C 3.917969 -2.957031 4.742188 -1.972656 4.800781 -1.886719 C 4.96875 -1.578125 5.128906 -1.191406 5.222656 -0.957031 L 5.324219 -0.65625 C 5.382812 -0.5625 5.417969 -0.433594 5.492188 -0.339844 C 4.535156 -0.648438 4.546875 -2.199219 3.632812 -2.929688 C 3.605469 -2.929688 3.773438 -3.015625 3.871094 -2.988281 Z M 4.320312 -6.066406 C 4.96875 -5.898438 5.410156 -5.4375 5.25 -4.40625 C 5.210938 -4.066406 4.875 -3.8125 4.546875 -3.578125 C 4.800781 -3.953125 4.910156 -4.40625 4.929688 -4.675781 C 4.929688 -5.242188 4.675781 -5.71875 4.320312 -6.066406 Z M 4.320312 -6.066406 "/></g></g></g></g></g></g><path fill="#f1c124" d="M 9.792969 25.898438 C 9.890625 25.855469 9.96875 25.792969 10.027344 25.710938 C 10.085938 25.628906 10.117188 25.539062 10.117188 25.441406 C 10.117188 25.253906 10.054688 25.105469 9.925781 24.996094 C 9.796875 24.886719 9.621094 24.835938 9.394531 24.835938 C 9.265625 24.835938 9.148438 24.859375 9.039062 24.910156 C 8.929688 24.957031 8.847656 25.027344 8.789062 25.117188 C 8.726562 25.203125 8.699219 25.304688 8.699219 25.414062 L 9.121094 25.414062 C 9.121094 25.34375 9.148438 25.285156 9.203125 25.242188 C 9.257812 25.199219 9.324219 25.175781 9.40625 25.175781 C 9.496094 25.175781 9.566406 25.199219 9.617188 25.246094 C 9.667969 25.292969 9.695312 25.363281 9.695312 25.449219 C 9.695312 25.535156 9.667969 25.609375 9.617188 25.660156 C 9.566406 25.714844 9.484375 25.742188 9.378906 25.742188 L 9.152344 25.742188 L 9.152344 26.074219 L 9.375 26.074219 C 9.609375 26.074219 9.726562 26.179688 9.726562 26.390625 C 9.726562 26.480469 9.699219 26.550781 9.640625 26.601562 C 9.585938 26.65625 9.507812 26.683594 9.40625 26.683594 C 9.316406 26.683594 9.246094 26.65625 9.183594 26.605469 C 9.125 26.554688 9.09375 26.492188 9.09375 26.410156 L 8.671875 26.410156 C 8.671875 26.59375 8.738281 26.742188 8.875 26.855469 C 9.007812 26.96875 9.183594 27.023438 9.394531 27.023438 C 9.621094 27.023438 9.804688 26.964844 9.945312 26.851562 C 10.082031 26.738281 10.152344 26.585938 10.152344 26.398438 C 10.152344 26.28125 10.121094 26.179688 10.0625 26.09375 C 10.003906 26.007812 9.914062 25.941406 9.792969 25.898438 Z M 9.792969 25.898438 " fill-opacity="1" fill-rule="nonzero"/><path fill="#f1c124" d="M 11.304688 25.570312 C 11.132812 25.570312 10.988281 25.625 10.875 25.742188 C 10.898438 25.570312 10.96875 25.4375 11.085938 25.339844 C 11.203125 25.242188 11.355469 25.191406 11.546875 25.191406 L 11.589844 25.191406 L 11.589844 24.839844 L 11.519531 24.839844 C 11.304688 24.84375 11.113281 24.890625 10.949219 24.988281 C 10.785156 25.085938 10.660156 25.222656 10.574219 25.398438 C 10.488281 25.578125 10.441406 25.78125 10.441406 26.011719 L 10.441406 26.164062 C 10.441406 26.425781 10.511719 26.632812 10.648438 26.789062 C 10.789062 26.945312 10.96875 27.023438 11.195312 27.023438 C 11.332031 27.023438 11.457031 26.992188 11.566406 26.929688 C 11.675781 26.867188 11.761719 26.78125 11.820312 26.667969 C 11.878906 26.554688 11.910156 26.429688 11.910156 26.292969 C 11.910156 26.074219 11.855469 25.902344 11.746094 25.769531 C 11.636719 25.636719 11.492188 25.570312 11.304688 25.570312 Z M 11.40625 26.574219 C 11.347656 26.648438 11.277344 26.683594 11.183594 26.683594 C 11.085938 26.683594 11.007812 26.644531 10.949219 26.5625 C 10.894531 26.484375 10.867188 26.375 10.867188 26.234375 L 10.867188 26.105469 C 10.894531 26.046875 10.933594 26 10.992188 25.964844 C 11.046875 25.925781 11.109375 25.910156 11.175781 25.910156 C 11.273438 25.910156 11.347656 25.945312 11.40625 26.015625 C 11.460938 26.085938 11.488281 26.179688 11.488281 26.296875 C 11.488281 26.410156 11.460938 26.503906 11.40625 26.574219 Z M 11.40625 26.574219 " fill-opacity="1" fill-rule="nonzero"/><path fill="#f1c124" d="M 12.875 24.835938 C 12.640625 24.835938 12.464844 24.910156 12.339844 25.066406 C 12.21875 25.21875 12.15625 25.445312 12.15625 25.742188 L 12.15625 26.136719 C 12.15625 26.421875 12.222656 26.640625 12.34375 26.792969 C 12.46875 26.945312 12.644531 27.023438 12.875 27.023438 C 13.113281 27.023438 13.289062 26.945312 13.410156 26.789062 C 13.535156 26.632812 13.59375 26.40625 13.59375 26.113281 L 13.59375 25.722656 C 13.59375 25.433594 13.527344 25.214844 13.40625 25.0625 C 13.285156 24.910156 13.105469 24.835938 12.875 24.835938 Z M 13.171875 26.1875 C 13.171875 26.355469 13.144531 26.480469 13.101562 26.5625 C 13.054688 26.640625 12.980469 26.683594 12.875 26.683594 C 12.773438 26.683594 12.695312 26.640625 12.648438 26.554688 C 12.601562 26.472656 12.578125 26.34375 12.578125 26.167969 L 12.578125 25.648438 C 12.582031 25.488281 12.605469 25.367188 12.652344 25.289062 C 12.699219 25.214844 12.773438 25.175781 12.875 25.175781 C 12.976562 25.175781 13.050781 25.214844 13.101562 25.296875 C 13.148438 25.375 13.171875 25.503906 13.171875 25.683594 Z M 13.171875 26.1875 " fill-opacity="1" fill-rule="nonzero"/><path fill="#f1c124" d="M 14.34375 24.925781 C 14.292969 24.867188 14.222656 24.835938 14.128906 24.835938 C 14.035156 24.835938 13.960938 24.867188 13.914062 24.929688 C 13.863281 24.992188 13.835938 25.082031 13.835938 25.203125 L 13.835938 25.359375 C 13.839844 25.476562 13.863281 25.566406 13.914062 25.628906 C 13.964844 25.691406 14.035156 25.71875 14.128906 25.71875 C 14.222656 25.71875 14.296875 25.6875 14.347656 25.625 C 14.394531 25.5625 14.421875 25.472656 14.421875 25.351562 L 14.421875 25.195312 C 14.417969 25.078125 14.394531 24.988281 14.34375 24.925781 Z M 14.25 25.382812 C 14.25 25.449219 14.238281 25.5 14.21875 25.535156 C 14.203125 25.566406 14.171875 25.582031 14.128906 25.582031 C 14.085938 25.582031 14.054688 25.566406 14.039062 25.53125 C 14.019531 25.496094 14.007812 25.445312 14.007812 25.375 L 14.007812 25.164062 C 14.007812 25.097656 14.019531 25.050781 14.039062 25.019531 C 14.058594 24.988281 14.085938 24.972656 14.128906 24.972656 C 14.167969 24.972656 14.199219 24.988281 14.21875 25.019531 C 14.238281 25.054688 14.25 25.105469 14.25 25.175781 Z M 14.25 25.382812 " fill-opacity="1" fill-rule="nonzero"/><path fill="#f1c124" d="M 14.375 21.578125 L 14.425781 20.535156 L 13.5 21.007812 Z M 14.375 21.578125 " fill-opacity="1" fill-rule="nonzero"/><g clip-path="url(#240d3e5e8a)"><path fill="#f1c124" d="M 15.261719 24.902344 C 15.414062 26.75 15.203125 28.664062 14.433594 30.363281 C 14.039062 31.207031 13.480469 32.035156 12.652344 32.5 C 11.375 33.203125 10.132812 32.597656 9.308594 31.523438 C 7.535156 29.191406 7.320312 25.246094 8.164062 22.511719 C 8.613281 21.066406 9.519531 19.335938 11.132812 18.992188 C 12.148438 18.789062 13.117188 19.351562 13.75 20.109375 C 13.960938 20.351562 14.148438 20.617188 14.316406 20.890625 C 14.316406 20.890625 13.90625 21.125 13.90625 21.125 C 13.625 20.613281 13.261719 20.128906 12.792969 19.777344 C 12.5625 19.609375 12.304688 19.472656 12.035156 19.398438 C 10.492188 18.996094 9.335938 20.496094 8.789062 21.757812 C 8.476562 22.449219 8.273438 23.1875 8.136719 23.933594 C 7.722656 26.320312 7.992188 29.40625 9.46875 31.398438 C 9.8125 31.84375 10.234375 32.246094 10.753906 32.464844 C 11.667969 32.863281 12.628906 32.507812 13.296875 31.816406 C 13.941406 31.167969 14.363281 30.320312 14.664062 29.460938 C 14.960938 28.585938 15.128906 27.671875 15.195312 26.753906 C 15.242188 26.140625 15.238281 25.523438 15.191406 24.90625 Z M 15.261719 24.902344 " fill-opacity="1" fill-rule="nonzero"/></g><path fill="#f1c124" d="M 9.730469 29.476562 L 10.6875 29.058594 L 10.574219 30.09375 Z M 9.730469 29.476562 " fill-opacity="1" fill-rule="nonzero"/><g clip-path="url(#e24976fc90)"><path fill="#f1c124" d="M 10.542969 29.355469 C 12.339844 29.5 14.207031 29.300781 15.859375 28.558594 C 16.660156 28.183594 17.429688 27.671875 17.871094 26.902344 C 18.507812 25.75 17.929688 24.652344 16.972656 23.910156 C 14.8125 22.257812 11.21875 22.011719 8.644531 22.664062 C 7.164062 23.042969 5.207031 23.917969 4.84375 25.558594 C 4.65625 26.484375 5.191406 27.367188 5.894531 27.933594 C 6.128906 28.128906 6.382812 28.300781 6.648438 28.449219 C 6.648438 28.449219 6.601562 28.539062 6.601562 28.539062 C 5.542969 27.925781 4.503906 26.859375 4.738281 25.539062 C 5.082031 23.832031 7.070312 22.894531 8.597656 22.472656 C 11.246094 21.757812 14.921875 21.960938 17.183594 23.636719 C 18.714844 24.773438 19.039062 26.476562 17.632812 27.878906 C 16.28125 29.191406 14.21875 29.726562 12.390625 29.867188 C 11.761719 29.914062 11.128906 29.910156 10.5 29.863281 C 10.5 29.863281 10.542969 29.355469 10.542969 29.355469 Z M 10.542969 29.355469 " fill-opacity="1" fill-rule="nonzero"/></g></svg>